/* XPM */
static char *dummy[]={
"48 48 135 2",
".e c #ff5f00",
".j c #ff6000",
"#a c #ff6300",
".E c #ff6408",
".5 c #ff6505",
".k c #ff6600",
"#b c #ff6700",
"#c c #ff6b00",
"#V c #ff6d12",
".T c #ff6d18",
"#l c #ff6f00",
".p c #ff7000",
"#S c #ff701b",
"#0 c #ff720c",
"#m c #ff7300",
".f c #ff7421",
"#N c #ff7524",
"#x c #ff7700",
".l c #ff770e",
".q c #ff7900",
"#5 c #ff7a0e",
"#y c #ff7b00",
"#n c #ff7b09",
"#J c #ff7c2e",
"#z c #ff7f00",
".L c #ff8238",
".y c #ff8300",
".r c #ff8402",
"#A c #ff8700",
"#d c #ff882f",
"#H c #ff8842",
"#B c #ff8b00",
".z c #ff8c00",
".Z c #ff8e29",
"#C c #ff8f00",
".Y c #ff923d",
"#D c #ff9300",
".A c #ff9600",
"#E c #ff9700",
".6 c #ff9855",
".P c #ff985c",
".F c #ff9a5f",
"#w c #ff9b00",
".Q c #ff9b0e",
".a c #ff9b61",
"#v c #ff9c0c",
".I c #ff9f00",
"#W c #ffa002",
"#o c #ffa14c",
"ab c #ffa240",
"aa c #ffa247",
"#j c #ffa300",
"#6 c #ffa52c",
".o c #ffa573",
".0 c #ffa64a",
".i c #ffa673",
"#k c #ffa700",
".d c #ffa775",
"#1 c #ffa823",
".U c #ffac7c",
"#O c #ffae17",
"#4 c #ffae71",
"#. c #ffb01b",
"#i c #ffb02e",
".s c #ffb051",
"ac c #ffb059",
"#Z c #ffb07c",
".H c #ffb084",
".B c #ffb235",
"a# c #ffb26b",
".m c #ffb36f",
"#u c #ffb450",
"#U c #ffb489",
".g c #ffba8e",
".X c #ffbb8e",
"#R c #ffbd97",
"#p c #ffc58e",
"#e c #ffc598",
".M c #ffc5a4",
"#M c #ffc6a5",
".K c #ffc6a6",
"ad c #ffca8c",
".b c #ffcaac",
"#t c #ffcc8d",
"#F c #ffcdb0",
".J c #ffce72",
".1 c #ffce93",
".D c #ffceb2",
"#I c #ffceb3",
".R c #ffd085",
"a. c #ffd1aa",
"#7 c #ffd498",
"#X c #ffd58e",
".w c #ffd6c0",
"#h c #ffd99f",
".7 c #ffdac1",
".# c #ffdcc8",
".O c #ffdcc9",
"#s c #ffddb7",
"#q c #ffddbb",
".G c #ffddcb",
".9 c #ffdea6",
"#T c #ffdfa6",
"## c #ffe0a5",
".t c #ffe4c0",
"#2 c #ffe5bc",
"#r c #ffe5ca",
"#K c #ffe7bb",
"ae c #ffead2",
".n c #ffeddc",
".V c #ffede3",
".C c #fff1d8",
"#3 c #fff1e8",
".W c #fff1ea",
".4 c #fff2da",
".x c #fff3ec",
"#Y c #fff5ef",
"#f c #fff6ef",
".h c #fff6f0",
".2 c #fff7ee",
"#9 c #fff8f3",
"#G c #fff8f5",
".3 c #fff9ef",
"#g c #fffaf3",
".N c #fffaf7",
"#Q c #fffbf9",
"#P c #fffcf6",
"#8 c #fffcf8",
".S c #fffcf9",
".c c #fffcfa",
".v c #fffcfb",
"#L c #fffdfc",
".8 c #fffefd",
".u c #fffefe",
"Qt c #ffffff",
"QtQtQtQtQtQtQtQtQtQtQtQtQtQtQtQtQtQtQtQtQtQtQtQtQtQtQtQtQtQtQtQtQtQtQtQtQtQtQtQtQtQtQtQtQtQtQtQt",
"QtQtQtQtQtQtQtQtQtQtQtQtQtQtQtQtQtQtQtQtQtQtQtQtQtQtQtQtQtQtQtQtQtQtQtQtQtQtQtQtQtQtQtQtQtQtQtQt",
"QtQtQtQtQtQtQtQtQtQtQtQtQtQtQtQtQtQtQtQtQtQtQtQtQtQtQtQtQtQtQtQtQtQtQtQtQtQtQtQtQtQtQtQtQtQtQtQt",
"QtQtQtQtQtQtQtQtQtQtQtQtQtQtQtQtQtQtQtQtQtQtQtQtQtQtQtQtQtQtQtQtQtQtQtQtQtQtQtQtQtQtQtQtQtQtQtQt",
"QtQtQtQtQtQtQtQtQtQtQtQtQtQtQtQtQtQtQtQtQtQtQtQtQtQtQtQtQtQtQtQtQtQtQtQtQtQtQtQtQtQtQtQtQtQtQtQt",
"QtQtQtQtQtQtQtQtQtQtQtQtQtQtQtQtQtQtQtQtQtQtQtQtQtQtQtQtQtQtQtQtQtQtQtQtQtQtQtQtQtQtQtQtQtQtQtQt",
"QtQtQtQtQtQtQtQtQtQtQtQtQtQtQtQtQtQtQtQtQtQtQtQtQtQtQtQtQtQtQtQtQtQtQtQtQtQtQtQtQtQtQtQtQtQtQtQt",
"QtQtQtQtQtQtQtQtQtQtQtQtQtQtQtQtQtQtQtQtQtQtQtQtQtQtQtQtQtQtQtQtQtQtQtQtQtQtQtQtQtQtQtQtQtQtQtQt",
"QtQtQtQtQtQtQtQtQtQtQtQtQtQtQtQtQtQtQtQtQtQtQtQtQtQtQtQtQtQtQtQtQtQtQtQtQtQtQtQtQtQtQtQtQtQtQtQt",
"QtQtQtQtQtQtQtQtQtQtQtQtQtQtQtQtQtQtQtQtQtQt.#.a.b.cQtQtQtQtQtQtQtQtQtQtQtQtQtQtQtQtQtQtQtQtQtQt",
"QtQtQtQtQtQtQtQtQtQtQtQtQtQtQtQtQtQtQtQtQtQt.d.e.e.f.g.hQtQtQtQtQtQtQtQtQtQtQtQtQtQtQtQtQtQtQtQt",
"QtQtQtQtQtQtQtQtQtQtQtQtQtQtQtQtQtQtQtQtQtQt.i.e.e.j.k.l.m.nQtQtQtQtQtQtQtQtQtQtQtQtQtQtQtQtQtQt",
"QtQtQtQtQtQtQtQtQtQtQtQtQtQtQtQtQtQtQtQtQtQt.o.e.e.j.k.p.q.r.s.t.uQtQtQtQtQtQtQtQtQtQtQtQtQtQtQt",
"QtQtQtQtQtQtQtQtQtQt.v.w.xQtQtQtQtQtQtQtQtQt.o.e.e.j.k.p.q.y.z.A.B.CQtQtQtQtQtQtQtQtQtQtQtQtQtQt",
"QtQtQtQtQtQtQtQtQtQt.D.e.E.F.G.uQtQtQtQtQtQt.H.e.e.j.k.p.q.y.z.A.I.JQtQtQtQtQtQtQtQtQtQtQtQtQtQt",
"QtQtQtQtQtQtQtQtQtQt.K.e.e.e.e.L.M.NQtQtQtQt.u.O.P.E.k.p.q.y.z.Q.R.SQtQtQtQtQtQtQtQtQtQtQtQtQtQt",
"QtQtQtQtQtQtQtQtQtQt.K.e.e.j.j.e.e.T.U.VQtQtQtQtQt.W.X.Y.Z.0.1.2QtQtQtQt.3.4QtQtQtQtQtQtQtQtQtQt",
"QtQtQtQtQtQtQtQtQtQt.K.j.j.j.j.e.e.e.j.5.6.7.uQtQtQtQtQtQtQtQtQtQtQt.8.9#.##QtQtQtQtQtQtQtQtQtQt",
"QtQtQtQtQtQtQtQtQtQt.K.e.e.e.e.e.e.e.j#a#b#c#d#e#fQtQtQtQtQtQtQt#g#h#i#j#k##QtQtQtQtQtQtQtQtQtQt",
"QtQtQtQtQtQtQtQtQtQt.K.e.e.e.e.e.e.e.j#a#b#c#l#m#n#o#p#q#r#s#t#u#v#w.I#j#k##QtQtQtQtQtQtQtQtQtQt",
"QtQtQtQtQtQtQtQtQtQt.K.e.e.e.e.e.e.e.j#a#b#c#l#m#x#y#z.y#A#B#C#D#E#w.I#j#k##QtQtQtQtQtQtQtQtQtQt",
"QtQtQtQtQtQtQtQtQtQt.K.e.e.e.e.e.e.e.j#a#b#c#l#m#x#y#z.y#A#B#C#D#E#w.I#j#k##QtQtQtQtQtQtQtQtQtQt",
"QtQtQtQtQtQtQtQtQtQt.K.e.e.e.e.e.e.e.j#a#b#c#l#m#x#y#z.y#A#B#C#D#E#w.I#j#k##QtQtQtQtQtQtQtQtQtQt",
"QtQtQtQtQtQtQtQtQtQt.K.e.e.e.e.e.e.e.j#a#b#c#l#m#x#y#z.y#A#B#C#D#E#w.I#j#k##QtQtQtQtQtQtQtQtQtQt",
"QtQtQtQtQtQtQtQtQtQt.K.e.e.e.e.e.e.e.j#a#b#c#l#m#x#y#z.y#A#B#C#D#E#w.I#j#k##QtQtQtQtQtQtQtQtQtQt",
"QtQtQtQtQtQtQtQtQtQt.K.e.e.e.e.e.e.e.j#a#b#c#l#m#x#y#z.y#A#B#C#D#E#w.I#j#k##QtQtQtQtQtQtQtQtQtQt",
"QtQtQtQtQtQtQtQtQtQt.K.e.e.e.e.e.e.e.j#a#b#c#l#m#x#y#z.y#A#B#C#D#E#w.I#j#k##QtQtQtQtQtQtQtQtQtQt",
"QtQtQtQtQtQtQtQtQtQt.K.e.e.e.e.e.e.e.j#a#b#c#l#m#x#y#z.y#A#B#C#D#E#w.I#j#k##QtQtQtQtQtQtQtQtQtQt",
"QtQtQtQtQtQtQtQtQtQt.K.e.e.e.e.e.e.e.j#a#b#c#l#m#x#y#z.y#A#B#C#D#E#w.I#j#k##QtQtQtQtQtQtQtQtQtQt",
"QtQtQtQtQtQtQtQtQtQt.K.e.e.e.e.e.e.e.j#a#b#c#l#m#x#y#z.y#A#B#C#D#E#w.I#j#k##QtQtQtQtQtQtQtQtQtQt",
"QtQtQtQtQtQtQtQtQtQt#F.e.e.e.j.e.j.j.j#a#b#c#l#m#x#y#z.y#A#B#C#D#E#w.I#j#k##QtQtQtQtQtQtQtQtQtQt",
"QtQtQtQtQtQtQtQtQtQt#G#H.e.j.e.j.j.j.j#a#b#c#l#m#x#y#z.y#A#B#C#D#E#w.I#j#k##QtQtQtQtQtQtQtQtQtQt",
"QtQtQtQtQtQtQtQtQtQtQt.u#I#J.e.e.e.j.j#a#b#c#l#m#x#y#z.y#A#B#C#D#E#w.I#j#k#KQtQtQtQtQtQtQtQtQtQt",
"QtQtQtQtQtQtQtQtQtQtQtQtQt#L#M#N.e.j.j#a#b#c#l#m#x#y#z.y#A#B#C#D#E#w.I#j#O#PQtQtQtQtQtQtQtQtQtQt",
"QtQtQtQtQtQtQtQtQtQtQtQtQtQtQt#Q#R#S.j#a#b#c#l#m#x#y#z.y#A#B#C#D#E#w.I#j#TQtQtQtQtQtQtQtQtQtQtQt",
"QtQtQtQtQtQtQtQtQtQtQtQtQtQtQtQtQt#G#U#V#b#c#l#m#x#y#z.y#A#B#C#D#E#w#W#X.uQtQtQtQtQtQtQtQtQtQtQt",
"QtQtQtQtQtQtQtQtQtQtQtQtQtQtQtQtQtQtQt#Y#Z#0#l#m#x#y#z.y#A#B#C#D#E#1#2QtQtQtQtQtQtQtQtQtQtQtQtQt",
"QtQtQtQtQtQtQtQtQtQtQtQtQtQtQtQtQtQtQtQtQt#3#4#5#x#y#z.y#A#B#C#6#7#8QtQtQtQtQtQtQtQtQtQtQtQtQtQt",
"QtQtQtQtQtQtQtQtQtQtQtQtQtQtQtQtQtQtQtQtQtQtQt#9a.a#aaabacadae.uQtQtQtQtQtQtQtQtQtQtQtQtQtQtQtQt",
"QtQtQtQtQtQtQtQtQtQtQtQtQtQtQtQtQtQtQtQtQtQtQtQtQtQtQtQtQtQtQtQtQtQtQtQtQtQtQtQtQtQtQtQtQtQtQtQt",
"QtQtQtQtQtQtQtQtQtQtQtQtQtQtQtQtQtQtQtQtQtQtQtQtQtQtQtQtQtQtQtQtQtQtQtQtQtQtQtQtQtQtQtQtQtQtQtQt",
"QtQtQtQtQtQtQtQtQtQtQtQtQtQtQtQtQtQtQtQtQtQtQtQtQtQtQtQtQtQtQtQtQtQtQtQtQtQtQtQtQtQtQtQtQtQtQtQt",
"QtQtQtQtQtQtQtQtQtQtQtQtQtQtQtQtQtQtQtQtQtQtQtQtQtQtQtQtQtQtQtQtQtQtQtQtQtQtQtQtQtQtQtQtQtQtQtQt",
"QtQtQtQtQtQtQtQtQtQtQtQtQtQtQtQtQtQtQtQtQtQtQtQtQtQtQtQtQtQtQtQtQtQtQtQtQtQtQtQtQtQtQtQtQtQtQtQt",
"QtQtQtQtQtQtQtQtQtQtQtQtQtQtQtQtQtQtQtQtQtQtQtQtQtQtQtQtQtQtQtQtQtQtQtQtQtQtQtQtQtQtQtQtQtQtQtQt",
"QtQtQtQtQtQtQtQtQtQtQtQtQtQtQtQtQtQtQtQtQtQtQtQtQtQtQtQtQtQtQtQtQtQtQtQtQtQtQtQtQtQtQtQtQtQtQtQt",
"QtQtQtQtQtQtQtQtQtQtQtQtQtQtQtQtQtQtQtQtQtQtQtQtQtQtQtQtQtQtQtQtQtQtQtQtQtQtQtQtQtQtQtQtQtQtQtQt",
"QtQtQtQtQtQtQtQtQtQtQtQtQtQtQtQtQtQtQtQtQtQtQtQtQtQtQtQtQtQtQtQtQtQtQtQtQtQtQtQtQtQtQtQtQtQtQtQt"};
